<svg width="264" height="206" viewBox="0 0 264 206" fill="none" xmlns="http://www.w3.org/2000/svg">
<path d="M180.459 18.7575L176.882 18.6421L177.113 11.0266L171.459 0.872559L175.613 0.987944L179.074 7.68039L182.882 1.21872L187.036 1.33411L180.69 11.142L180.459 18.7575ZM202.383 22.3345L192.113 19.9114L196.036 2.83413L206.306 5.14187L205.613 8.14193L198.806 6.6419L197.998 10.2189L204.46 11.7189L203.767 14.6036L197.306 13.1036L196.152 17.9498L202.96 19.5652L202.383 22.3345ZM224.537 31.2193L220.96 29.6039L221.191 25.5653L214.498 22.5653L211.498 25.3346L208.037 23.7192L222.46 10.9112L224.768 11.9497L224.537 31.2193ZM216.691 20.3729L221.075 22.3345L221.191 19.5652L221.306 18.296C221.306 17.3729 221.421 16.5652 221.421 15.7575C220.268 16.9113 219.345 17.8344 218.768 18.4114L216.691 20.3729ZM239.883 42.1811L236.422 39.6426L236.768 31.4501L236.306 31.1039L232.268 36.6425L229.383 34.5655L239.768 20.3729L243.23 22.9115C244.96 24.1807 246.114 25.5653 246.691 27.0654C247.153 28.5654 246.922 29.95 245.768 31.4501C245.076 32.3732 244.268 32.9501 243.23 33.2963C242.191 33.6424 241.037 33.5271 239.768 33.2963L239.883 42.1811ZM240.922 24.873L238.037 28.9116L238.73 29.3731C239.653 30.0654 240.46 30.4116 241.153 30.4116C241.845 30.4116 242.537 30.0654 242.999 29.3731C243.46 28.6808 243.576 28.1039 243.345 27.4115C243.114 26.7192 242.537 26.1423 241.614 25.45L240.922 24.873ZM245.653 47.0273C245.422 45.758 245.537 44.4888 245.999 43.3349L248.999 44.0272C248.653 44.9503 248.537 45.7581 248.653 46.5658C248.768 47.3735 249.114 47.9504 249.691 48.6427C250.153 49.2197 250.73 49.4504 251.307 49.5658C251.884 49.5658 252.461 49.4504 252.922 48.9889C253.268 48.6427 253.499 48.4119 253.614 48.0658C253.73 47.7196 253.73 47.2581 253.614 46.6811C253.499 46.1042 253.384 45.4119 253.037 44.6042C252.691 43.4503 252.345 42.5272 252.23 41.7195C252.114 40.9118 252.114 40.2195 252.345 39.5272C252.576 38.8348 253.037 38.2579 253.614 37.681C254.307 37.104 255.114 36.6425 255.922 36.5271C256.845 36.4117 257.653 36.5271 258.576 36.8733C259.499 37.2194 260.307 37.7964 260.999 38.6041C261.807 39.5272 262.384 40.4503 262.615 41.4887C262.845 42.5272 262.845 43.4503 262.615 44.4888L259.615 44.1426C259.73 43.4503 259.845 42.8734 259.73 42.2964C259.615 41.7195 259.384 41.258 258.922 40.681C258.691 40.3349 258.345 40.1041 257.999 39.9887C257.653 39.8733 257.307 39.7579 256.961 39.8733C256.614 39.8733 256.384 39.9887 256.153 40.2195C255.922 40.4503 255.807 40.681 255.691 41.0272C255.691 41.3734 255.691 41.7195 255.807 42.2964C255.922 42.8734 256.153 43.5657 256.384 44.3734C256.845 45.5273 257.076 46.4504 257.076 47.3735C257.191 48.1812 257.076 48.9889 256.73 49.6812C256.499 50.3735 255.922 51.0658 255.23 51.6428C254.422 52.3351 253.614 52.7967 252.691 52.912C251.768 53.0274 250.845 52.912 249.922 52.5659C248.999 52.2197 248.191 51.5274 247.384 50.7197C246.576 49.4504 245.883 48.2966 245.653 47.0273Z" fill="white"/>
<path d="M151.842 60.8738V8.94971H0.685547L23.4168 44.4889H92.0719C85.841 47.6043 79.7255 51.1813 73.9562 55.1045C67.033 59.9507 60.5713 65.3739 54.9174 71.4894C67.2638 60.1815 81.4564 51.1813 96.6874 44.2581L100.611 42.4119C99.1105 42.4119 97.7259 42.4119 96.2259 42.4119H24.3399L4.14715 10.7959H149.881V59.143L145.265 59.8353C127.38 62.3738 104.649 74.1433 94.2643 81.7588C81.4564 91.1052 72.8024 99.2976 66.3407 108.413C48.3403 134.029 46.0326 161.607 47.1865 180.184L47.5326 185.953H15.8012L15.5705 180.876C15.5705 179.953 15.4551 179.261 15.4551 179.261C14.7627 161.607 16.7243 143.837 21.2244 126.76C14.4166 144.645 12.455 164.145 13.7243 183.184L13.955 187.799H49.725L49.2634 179.953C48.1096 161.607 50.4173 134.606 68.0715 109.452C74.4178 100.567 82.841 92.4898 95.5335 83.2588C105.803 75.7587 128.188 64.22 145.727 61.6815L151.842 60.8738Z" fill="white"/>
<path d="M245.076 62.9503C245.076 62.835 244.961 62.835 244.961 62.7196C244.73 62.4888 244.499 62.1426 244.269 61.9119C241.846 58.9118 239.192 56.0271 236.422 53.2578L236.307 53.1425C235.845 52.6809 235.384 52.3347 234.922 51.8732C234.576 51.527 234.115 51.1809 233.768 50.8347L233.653 50.7193L233.538 50.604C233.192 50.2578 232.73 49.9116 232.384 49.5655C217.037 36.5267 196.96 29.142 176.883 28.1035C181.152 28.6804 185.306 29.3728 189.46 30.4113C196.268 32.0267 203.076 34.3344 209.422 37.3345C226.038 44.95 239.538 57.0656 248.884 71.8351C257.307 85.4508 261.923 101.259 261.923 117.413C261.923 143.952 250.038 167.722 231.345 183.645C219.922 193.337 205.96 200.145 190.96 202.453C149.998 209.953 109.497 184.914 95.6504 145.683C107.42 182.837 141.344 205.684 176.998 205.799C177.114 205.799 177.229 205.799 177.46 205.799C185.191 205.799 193.037 204.761 200.768 202.453C200.883 202.453 200.999 202.453 200.999 202.338C201.46 202.222 202.037 201.992 202.499 201.876C202.96 201.761 203.537 201.53 203.999 201.415C204.114 201.415 204.229 201.299 204.345 201.299C238.961 189.645 264 156.414 264 117.413C264 97.7972 257.192 78.4122 245.076 62.9503Z" fill="white"/>
<path d="M133.264 145.799C135.687 150.068 138.687 153.991 142.264 157.453C149.418 164.376 158.649 169.223 168.457 170.838C182.188 173.261 195.342 169.799 205.842 162.646C214.496 156.761 221.304 148.453 225.342 138.645H223.15C220.612 144.53 217.035 149.838 212.65 154.338C200.188 166.915 181.611 173.03 162.572 167.723C150.802 164.146 140.302 156.184 133.264 145.799Z" fill="white"/>
<path d="M219.806 90.0668C219.806 89.7207 219.806 89.4899 219.806 89.3745V88.336H220.383C220.613 88.336 220.844 88.336 221.075 88.336C217.959 83.3744 213.921 78.8743 209.305 75.1819C208.267 74.3742 207.228 73.5665 206.075 72.7588C205.498 73.2203 204.921 73.5665 204.344 74.028C205.613 74.8357 206.767 75.7588 208.036 76.6819C212.652 80.3743 216.69 84.9898 219.806 90.0668Z" fill="white"/>
<path d="M180.576 137.721C179.306 138.298 176.999 139.567 173.537 139.567C170.075 139.567 162.806 137.49 162.806 128.49V91.9124H158.191V88.22H162.806V86.3738C162.806 83.0276 164.421 80.0275 167.306 77.7198C169.614 75.989 171.806 75.2967 171.806 75.2967L172.614 75.0659C172.614 75.0659 172.614 80.7199 172.614 88.22H182.422C182.422 88.22 180.922 91.9124 179.191 91.9124H172.614V128.375C172.499 135.182 178.383 137.952 180.576 137.721ZM79.3813 73.912C76.6121 73.912 74.4197 76.1044 74.4197 78.8737C74.4197 81.643 76.6121 83.8353 79.3813 83.8353C82.1506 83.8353 84.343 81.643 84.343 78.8737C84.4584 76.2198 82.1506 73.912 79.3813 73.912ZM84.343 93.7586V138.413H74.6505V95.7201C74.6505 92.4893 74.6505 89.2585 74.6505 89.2585V88.22H78.8044C81.8045 88.3354 84.343 90.7585 84.343 93.7586ZM67.4965 71.9505C68.0734 72.7582 68.4196 73.7967 68.1888 74.8351L57.804 138.529H50.4193V138.413C50.3039 137.952 44.3038 101.374 42.3422 89.3739C42.8037 97.2202 42.8037 102.528 42.3422 105.066L36.3421 138.529H30.2266L15.457 60.2964L20.1879 61.4503C23.5341 62.8349 27.4573 66.2965 28.6111 71.9505L36.5728 112.797L43.8422 67.5658L45.4576 67.7965C48.8038 68.2581 51.4577 70.7966 51.9193 74.1428L58.0348 112.682L64.8426 70.4504L65.1888 70.5658C66.2273 70.6812 67.035 71.1428 67.4965 71.9505ZM197.768 87.6431C190.384 87.6431 181.614 92.1432 181.614 113.374C181.614 130.452 187.037 139.106 197.768 139.106C208.615 139.106 214.038 130.452 214.038 113.374C214.038 92.1432 205.153 87.6431 197.768 87.6431ZM197.768 135.067C193.961 135.067 191.884 131.029 191.884 113.374C191.884 99.8741 192.807 91.6816 197.768 91.6816C202.268 91.6816 203.768 97.6817 203.768 113.374C203.768 129.067 202.268 135.067 197.768 135.067ZM156.575 124.913C156.575 133.913 148.729 139.221 141.113 139.221C137.421 139.221 134.998 138.759 132.921 138.298L132.459 138.183L132.113 138.067C131.767 137.952 131.536 137.952 131.19 137.952L130.267 137.836L130.729 126.759L132.459 129.644C133.959 132.067 136.498 134.144 140.19 134.606C140.767 134.606 141.229 134.721 141.575 134.721C143.536 134.721 148.267 133.452 148.267 128.605C148.267 125.144 146.421 122.605 144.921 121.105C143.767 119.836 140.652 117.067 137.652 114.759C131.421 110.028 129.575 106.913 129.575 100.913C129.575 93.4124 135.344 87.8738 143.19 87.8738C146.767 87.8738 148.96 88.3354 151.383 88.9123L153.114 89.2585L153.575 98.8356L152.883 99.0664L151.383 96.5279C150.113 94.2201 147.575 92.2585 144.575 92.2585C143.075 92.2585 137.998 93.4124 137.883 98.2587C137.767 100.336 138.806 102.297 140.536 103.797C142.498 105.528 144.69 107.259 147.575 109.451C155.537 115.105 156.575 120.182 156.575 124.913ZM249.462 100.566V138.759H246.115C240.808 138.759 239.769 137.259 239.769 130.567V102.413C239.769 96.0663 238.269 93.5278 234.692 93.5278C233.077 93.5278 231.692 94.4509 230.654 96.1817C229.846 97.5664 229.615 98.951 229.615 98.951H229.5C229.5 99.5279 229.5 99.8741 229.5 99.8741V138.413H219.807V95.7201C219.807 92.4893 219.807 89.8354 219.807 89.2585V88.22H220.384C226.038 88.22 227.769 90.7585 228.692 92.2585C228.923 92.6047 229.038 93.1816 229.154 93.7586C229.846 90.9893 232.154 87.1815 237.808 87.1815C243.115 87.2969 249.462 89.6046 249.462 100.566ZM122.767 100.566V138.759H119.421C114.113 138.759 113.074 137.259 113.074 130.567V102.413C113.074 96.0663 111.574 93.5278 107.997 93.5278C106.382 93.5278 104.997 94.4509 103.959 96.1817C103.151 97.5664 102.92 98.951 102.92 98.951H102.805C102.805 99.5279 102.805 99.8741 102.805 99.8741V138.413H93.1124V95.7201C93.1124 92.4893 93.1124 89.8354 93.1124 89.2585V88.22H93.6893C99.3433 88.22 101.074 90.7585 101.997 92.2585C102.228 92.6047 102.343 93.1816 102.459 93.7586C103.151 90.9893 105.459 87.1815 111.113 87.1815C116.421 87.2969 122.767 89.6046 122.767 100.566Z" fill="white"/>
<path d="M256.268 54.758C245.883 62.4889 226.267 60.1812 226.267 60.1812C226.613 55.2195 221.882 56.3734 221.882 56.3734C221.19 55.5657 220.036 55.4503 219.113 55.3349C216.575 55.2195 214.267 56.1426 211.844 56.4888C209.305 56.835 206.767 56.835 204.344 56.258C197.19 54.4118 190.728 50.8348 184.843 46.3347C180.343 42.7578 176.189 38.6038 172.612 34.1037C169.843 30.7575 167.42 27.0652 165.92 22.9112C165.112 20.8343 164.42 18.5265 164.535 14.7188C164.535 14.7188 153.804 31.5652 171.574 45.2963C171.574 45.2963 163.266 41.3731 160.151 35.4884C159.343 39.1808 159.689 48.7579 174.228 54.2964C174.228 54.2964 168.805 54.2964 162.92 50.4887C162.92 50.4887 168.805 65.489 194.767 68.0275C188.766 70.9122 181.497 71.3737 181.497 71.3737C181.497 71.3737 181.843 75.4122 186.343 75.2969C190.843 75.2969 193.497 73.3353 193.497 73.3353C193.497 73.3353 190.728 75.7584 188.19 77.0277C191.42 77.72 200.536 78.6431 208.036 71.0275C210.344 68.7198 213.113 66.2967 214.844 64.912C214.498 65.2582 211.152 68.2583 210.575 70.3352C212.536 70.3352 226.844 70.7968 241.96 65.6044C243.46 65.1428 244.844 64.5659 246.229 63.9889C251.191 61.7966 254.999 58.7965 256.268 54.758ZM224.998 60.9889C224.421 60.1812 221.882 59.4888 215.767 63.9889C216.344 62.6043 213.344 62.0274 211.382 60.8735C209.305 59.7196 210.575 57.6427 210.575 57.6427C214.267 58.7965 215.19 57.1811 217.959 56.7196C220.152 56.3734 220.498 56.9504 220.498 56.9504C219.69 57.8734 218.19 58.1042 218.19 58.1042C218.19 58.1042 219.575 59.0273 221.19 58.1042C222.344 57.5273 222.921 56.9503 223.959 57.4119C224.883 58.1042 225.575 59.3735 224.998 60.9889Z" fill="white"/>
</svg>
