<svg width="224" height="149" viewBox="0 0 224 149" fill="none" xmlns="http://www.w3.org/2000/svg">
<path d="M223.517 65.3169C222.759 64.3695 221.377 64.2143 220.428 64.9739L206.921 75.7788L166.264 14.377L178.944 3.89071C179.878 3.11784 180.009 1.7324 179.237 0.797195C178.462 -0.139028 177.078 -0.26869 176.141 0.504179L161.942 12.2504C161.075 12.9661 160.889 14.2198 161.51 15.157L166.423 22.5784C157.237 24.6193 145.825 23.9547 137.162 20.8428C126.658 17.0693 120 18.7222 110.283 21.8944C108.747 22.3967 107.095 22.9562 105.396 23.533C101.504 24.8552 97.4793 26.2212 93.9948 27.1687L92.8778 27.4678C92.2989 27.623 91.715 27.7823 91.132 27.9446C88.5939 27.9007 69.556 27.3157 59.1687 20.1781L62.4929 15.157C63.1127 14.2198 62.9258 12.9661 62.0611 12.2504L47.8585 0.505201C46.9233 -0.267668 45.5378 -0.136985 44.7639 0.798217C43.989 1.73342 44.1217 3.11886 45.0569 3.89173L57.7363 14.378L17.0785 75.7798L3.57113 64.9739C2.62266 64.2153 1.23925 64.3685 0.481699 65.3169C-0.276877 66.2654 -0.122712 67.6488 0.825763 68.4064L16.2107 80.7141C16.6027 81.0285 17.0877 81.196 17.5828 81.196C17.6962 81.196 17.8105 81.1878 17.9249 81.1694C18.5344 81.0745 19.0755 80.7274 19.4165 80.2108L22.171 76.0534C26.8818 83.7423 32.1887 89.0952 34.8004 91.4965L31.8906 95.2506C29.9314 97.7928 29.0819 100.944 29.4964 104.125C29.912 107.305 31.5425 110.135 34.0867 112.091C35.9612 113.532 38.195 114.382 40.5494 114.552C40.8342 114.571 41.1201 114.581 41.406 114.581C41.7643 114.581 42.1166 114.552 42.4678 114.521C41.798 116.326 41.5673 118.277 41.8236 120.242C42.2381 123.423 43.8685 126.252 46.4128 128.208C48.2873 129.651 50.5222 130.501 52.8755 130.669C53.1613 130.689 53.4482 130.699 53.7372 130.699C55.386 130.699 56.9726 130.353 58.4356 129.736C58.4499 130.104 58.4765 130.474 58.5255 130.845C58.941 134.027 60.5705 136.855 63.1137 138.812C64.9892 140.254 67.2231 141.103 69.5764 141.27C69.8633 141.291 70.1491 141.302 70.4371 141.302C73.065 141.302 75.5409 140.454 77.5828 138.937C78.1127 141.495 79.5002 143.768 81.5666 145.418C83.3512 146.842 85.4952 147.682 87.77 147.844C88.0385 147.864 88.306 147.873 88.5745 147.873C92.011 147.873 95.2087 146.336 97.3823 143.617L101.851 137.755C102.154 137.985 102.453 138.212 102.772 138.456C108.257 142.632 116.253 148.723 123.943 148.721C127.549 148.721 131.087 147.382 134.266 143.879C135.929 142.045 136.687 139.498 136.495 137.099C137.932 137.632 139.454 137.599 141.008 137.599C141.025 137.599 141.041 137.599 141.056 137.599C145.475 137.599 149.574 135.732 152.028 132.06C153.968 129.159 154.583 125.888 154.029 122.645C155.778 123.472 157.689 123.985 159.643 123.985C164.065 123.985 168.169 121.83 170.621 118.156C173.096 114.45 173.493 110.041 172.078 106.183C172.337 106.198 172.599 106.222 172.861 106.222C177.3 106.222 181.415 104.021 183.864 100.323C186.652 96.1123 186.694 90.8768 184.433 86.7214C188.127 85.1716 194.965 81.7636 201.547 75.6134L204.589 80.2097C204.927 80.7253 205.469 81.0735 206.079 81.1684C206.193 81.1868 206.309 81.195 206.422 81.195C206.917 81.195 207.402 81.0275 207.794 80.7131L223.179 68.4054C224.124 67.6488 224.276 66.2654 223.517 65.3169ZM40.8618 110.167C39.3702 110.06 37.9541 109.52 36.7637 108.606C35.1505 107.364 34.1163 105.571 33.8539 103.555C33.5905 101.539 34.1296 99.5427 35.366 97.9367L45.4612 84.9174C46.9141 83.0296 49.1183 81.9474 51.5084 81.9474C53.2012 81.9474 54.8061 82.4936 56.1497 83.5269C57.7638 84.7683 58.7971 86.5622 59.0594 88.5776C59.3229 90.5797 58.7899 92.5644 57.5699 94.1643L47.3225 107.362C45.7563 109.294 43.3509 110.33 40.8618 110.167ZM53.1848 126.284C51.6952 126.179 50.2792 125.638 49.0887 124.724C47.4766 123.484 46.4434 121.69 46.18 119.674C45.9166 117.658 46.4557 115.661 47.691 114.058L50.7845 110.074C50.8315 110.015 50.8846 109.965 50.9316 109.904L61.0268 96.8862C61.033 96.877 61.0391 96.8668 61.0462 96.8576L65.1852 91.5261C66.6391 89.6383 68.8433 88.5561 71.2324 88.5561C72.9251 88.5561 74.5301 89.1034 75.8747 90.1376C77.4889 91.377 78.5221 93.1709 78.7845 95.1862C79.0468 97.2016 78.5108 99.1986 77.2745 100.803L75.1427 103.549C75.0283 103.685 74.9048 103.808 74.7956 103.949L70.4299 109.616L59.7782 123.334C58.2151 125.366 55.7617 126.477 53.1848 126.284ZM69.8878 136.886C68.3951 136.78 66.9801 136.24 65.7896 135.327C64.1765 134.086 63.1433 132.293 62.8809 130.277C62.6175 128.26 63.1566 126.264 64.397 124.653L73.8951 112.32L78.6201 106.231C80.0668 104.595 82.1118 103.658 84.3232 103.658C86.0149 103.658 87.6209 104.204 88.9665 105.24C90.5796 106.479 91.6118 108.273 91.8752 110.288C92.1387 112.304 91.5986 114.301 90.3591 115.913L87.3544 119.814C87.2105 119.974 87.0594 120.125 86.9236 120.296L81.1602 127.856L76.4781 133.936C74.915 135.968 72.4637 137.079 69.8878 136.886ZM93.9161 140.912C92.5093 142.67 90.3387 143.614 88.0803 143.46C86.6979 143.361 85.3931 142.851 84.3079 141.982C82.8806 140.844 81.9831 139.218 81.781 137.406C81.5778 135.595 82.0934 133.813 83.2655 132.349L84.5815 130.621L90.8185 122.524C92.1039 121.192 93.86 120.435 95.7375 120.435C97.3006 120.435 98.7749 120.951 99.999 121.93C101.425 123.069 102.323 124.694 102.524 126.507C102.727 128.319 102.211 130.1 101.041 131.565L93.9161 140.912ZM180.195 97.9C178.562 100.365 175.819 101.836 172.858 101.836C171.133 101.836 169.455 101.329 168.01 100.373L133.446 77.4593C132.435 76.7885 131.072 77.0631 130.4 78.077C129.729 79.0887 130.006 80.4517 131.017 81.1225L141.119 87.82C141.132 87.8271 141.139 87.8373 141.151 87.8445L163.562 102.697L164.614 103.395C168.669 106.223 169.7 111.653 166.962 115.758C165.326 118.207 162.589 119.67 159.639 119.67C157.903 119.67 156.22 119.158 154.769 118.191L133.392 103.925L124.44 97.9418C123.43 97.267 122.066 97.5386 121.392 98.5473C120.717 99.557 120.989 100.921 121.997 101.596L122.899 102.2C122.919 102.214 122.933 102.231 122.952 102.244L130.584 107.336L145.976 117.626C149.972 120.413 151.045 125.677 148.369 129.682C146.733 132.13 143.998 133.328 141.051 133.328C141.04 133.328 141.029 133.328 141.019 133.328C139.293 133.328 137.616 133.069 136.172 132.104C136.172 132.104 131.823 129.392 131.79 129.37L112.551 116.589C111.604 115.959 110.355 116.182 109.647 117.042C109.599 117.099 109.547 117.16 109.504 117.224C109.419 117.349 109.35 117.485 109.297 117.621C109.256 117.719 109.232 117.823 109.207 117.924C109.198 117.962 109.183 117.999 109.173 118.036C109.164 118.092 109.164 118.15 109.158 118.205C109.103 118.714 109.212 119.26 109.569 119.796C109.724 120.027 110.645 120.687 110.645 120.687L129.4 133.16C130.566 133.986 131.853 135.732 132.079 137.57C132.235 138.846 131.886 139.943 130.994 140.928C124.3 148.307 115.083 142.317 105.425 134.961C105.108 134.718 104.81 134.492 104.508 134.263C106.375 131.923 107.222 128.997 106.891 126.02C106.557 123.04 105.082 120.368 102.738 118.497C100.757 116.913 98.2685 116.042 95.7355 116.042C95.5967 116.042 95.4639 116.06 95.3271 116.065C96.1909 114.089 96.5186 111.916 96.2337 109.723C95.8192 106.542 94.1887 103.714 91.6445 101.757C89.5229 100.128 86.991 99.267 84.3222 99.267C83.8117 99.267 83.3094 99.3038 82.8122 99.365C83.2328 97.8407 83.3502 96.2337 83.1409 94.6196C82.7254 91.4383 81.0959 88.6092 78.5517 86.653C76.4311 85.0236 73.8991 84.1619 71.2293 84.1619C68.2389 84.1619 65.4425 85.2553 63.2679 87.189C62.6971 84.3467 61.1483 81.8331 58.8267 80.0474C56.7061 78.4179 54.1752 77.5563 51.5064 77.5563C47.7441 77.5563 44.2698 79.2633 41.9818 82.2343L37.5049 88.0079C34.8136 85.4891 29.376 79.8708 24.8694 71.9736L56.7388 23.8465C64.1398 28.889 74.8956 30.9452 82.4691 31.7783C82.0934 32.0509 81.7207 32.3307 81.3563 32.641C78.811 34.8116 76.6639 38.1951 74.5883 41.4683C73.9185 42.525 73.2488 43.5807 72.5709 44.5863C71.4407 46.2658 70.6555 47.2878 69.7479 48.47C68.6483 49.9014 67.4038 51.5258 65.2434 54.6846C64.9126 55.1696 64.7881 55.7771 64.9004 56.3529C65.0423 57.0911 65.2363 57.5566 67.806 59.2718C69.4345 60.3581 71.1885 61.2923 73.014 62.0478C76.0789 63.3138 79.0683 63.8815 81.9055 63.7355C85.5402 63.5476 89.1595 62.2051 92.9738 59.6312C95.3914 57.9997 97.757 56.0364 100.639 53.2635C101.145 52.7754 101.609 52.2558 102.059 51.7524C103.048 50.6467 103.983 49.6023 105.055 49.2531C105.849 48.9948 106.879 49.1184 107.971 49.249C108.356 49.296 108.737 49.3409 109.117 49.3746C112.375 49.6564 115.542 49.6717 118.524 49.4226C120.689 49.2419 123.944 49.3654 124.726 49.7646C125.884 50.6927 135.505 57.1993 157.545 72.0482C167.253 78.5895 176.432 84.7734 177.46 85.5157C177.495 85.5484 177.542 85.5872 177.566 85.6066C177.617 85.6464 177.667 85.6831 177.721 85.7189C179.678 87.0165 181.013 88.9982 181.479 91.2994C181.95 93.5976 181.493 95.9428 180.195 97.9ZM198.633 72.3208C191.737 78.7978 184.373 82.0475 181.555 83.1379C181.15 82.7826 180.727 82.4416 180.27 82.1312C180.222 82.0914 180.171 82.0495 180.137 82.024C179.303 81.4053 171.944 76.4434 160.004 68.3992C146.786 59.4934 128.682 47.297 127.557 46.3965C125.478 44.5812 119.84 44.8977 118.162 45.0386C115.426 45.2673 112.512 45.252 109.5 44.9916C109.169 44.963 108.835 44.9222 108.5 44.8824C107.054 44.7078 105.414 44.5107 103.698 45.0713C101.5 45.7869 100.058 47.398 98.7861 48.8192C98.3727 49.2817 97.9816 49.7187 97.5937 50.0913C94.9014 52.6825 92.7196 54.4998 90.5174 55.9853C87.383 58.0987 84.4937 59.1973 81.6789 59.3433C79.5022 59.4566 77.1509 58.9982 74.6955 57.9834C73.1344 57.3371 71.6367 56.5387 70.2533 55.6168C70.1982 55.58 70.1267 55.53 70.044 55.4728C71.4488 53.4717 72.3881 52.2486 73.2355 51.1439C74.1483 49.9545 75.01 48.8304 76.2178 47.0407C76.9161 46.0014 77.6093 44.912 78.3005 43.8196C80.2016 40.822 82.17 37.7224 84.2088 35.9816C87.0195 33.5844 90.2601 32.7186 94.0131 31.715L95.1464 31.4108C98.7637 30.4276 102.853 29.0391 106.808 27.6955C108.489 27.1237 110.125 26.5694 111.647 26.0722C121.508 22.8531 126.761 21.777 135.676 24.9787C145.402 28.4735 157.781 29.1453 167.983 26.7378C168.326 26.6572 168.438 26.65 169.017 26.4948L199.074 71.8869C198.962 72.0471 198.786 72.1768 198.633 72.3208Z" fill="white"/>
</svg>
