<svg width="150" height="168" viewBox="0 0 150 168" fill="none" xmlns="http://www.w3.org/2000/svg">
<path d="M130.658 126.13C140.633 124.907 147.873 121.517 147.873 117.461V105.291M98.9466 105.291V113.445M130.658 138.813C140.633 137.59 147.873 134.2 147.873 130.144V117.974M130.658 150.591C140.633 149.369 147.873 145.979 147.873 141.922V129.752M70.8591 133.377V145.293C70.8591 150.244 81.8061 154.216 95.3222 154.216C108.838 154.216 119.785 150.19 119.785 145.293V133.377M70.8591 145.152V157.068C70.8591 162.019 81.8061 165.991 95.3222 165.991C108.838 165.991 119.785 161.965 119.785 157.068V145.152M97.1343 25.1748V16.8783C97.1343 8.69248 90.4464 2 82.1424 2H16.9919C8.74357 2 2 8.63717 2 16.8783V151.115C2 159.301 8.68784 165.993 16.9919 165.993H60.2397M53.6445 151.497H46.3961M58.1745 16.4954H40.9597M70.8591 116.161V37.3359H128.846V84.5869M115.255 87.2231C111.974 82.2861 106.396 79.0132 100.052 79.0132C89.9347 79.0132 81.7316 87.334 81.7316 97.5963C81.7316 103.199 84.1925 108.247 88.0754 111.631M118.879 74.4833V57.2119C113.501 57.2119 109.176 52.795 109.176 47.3021H91.4343C91.4343 52.795 87.1097 57.2119 81.7316 57.2119V74.4833M147.873 105.289C147.873 110.293 136.92 114.35 123.41 114.35C109.899 114.35 98.9466 110.293 98.9466 105.289C98.9466 100.285 109.899 96.2289 123.41 96.2289C136.92 96.2289 147.873 100.285 147.873 105.289ZM119.785 133.376C119.785 138.38 108.833 142.436 95.3223 142.436C81.8117 142.436 70.8591 138.38 70.8591 133.376C70.8591 128.372 81.8117 124.315 95.3223 124.315C108.833 124.315 119.785 128.372 119.785 133.376Z" stroke="white" stroke-width="4" stroke-miterlimit="10" stroke-linecap="round" stroke-linejoin="round"/>
</svg>
