<svg width="124" height="129" viewBox="0 0 124 129" fill="none" xmlns="http://www.w3.org/2000/svg">
<path d="M0 105.54V93.4464C2.06933 95.017 4.55816 95.95 7.15727 96.129C11.3674 96.129 13.3174 94.4577 13.3174 87.3339V15.5231H30.8671V90.1482C30.8671 100.988 24.5963 109.167 12.4532 109.167C8.01056 109.37 3.62728 108.093 0 105.54ZM59.8286 28.5836H38.8885V15.3912H98.2516V28.5836H77.3337V73.1301L59.8286 77.8794V28.5836ZM106.362 15.3912H123.911V60.4434L106.362 65.2367V15.3912ZM64.5039 99.9107L56.0394 85.4869L62.4433 83.7279L67.451 92.8968L72.3924 80.9795L78.5305 79.2866L70.2652 98.2837V109.409L64.5039 111.08V99.9107ZM89.3659 75.5267C82.94 77.2857 77.7328 84.8933 77.7328 93.3803C77.7328 101.868 82.9843 106.573 89.3882 104.66C95.7921 102.747 100.8 95.2713 100.8 86.8721C100.8 78.473 95.7035 73.7896 89.3659 75.5267ZM89.3659 98.8334C85.8428 99.8227 83.7377 96.9863 83.7377 91.6874C83.7377 86.3885 85.8205 82.3428 89.3439 81.3753C92.867 80.4078 94.8615 83.2663 94.8615 88.5433C94.8615 93.8201 92.845 97.8219 89.3882 98.9432L89.3659 98.8334ZM104.279 86.9382V72.2066L109.885 70.6674V84.9373C109.885 89.7524 111.325 91.9293 114.317 91.0938C117.308 90.2583 118.195 87.5977 118.195 82.8044V68.6006L124 66.7976V81.3534C124 90.5221 119.724 95.865 114.25 97.4482C108.777 99.0312 104.301 96.1727 104.301 86.9382H104.279ZM123.889 9.98227H106.362V0H123.911L123.889 9.98227ZM43.564 116.115L26.1916 120.931V117.171L44.9156 88.3454L52.4276 86.3224L52.0064 108.574L59.2967 106.573L59.1637 111.894L51.9178 113.873L51.674 126.801L43.4089 129L43.564 116.115ZM43.9185 99.8886L35.5868 112.751L43.8078 110.553L43.9185 99.8886Z" fill="url(#paint0_radial_4854_2899)"/>
<defs>
<radialGradient id="paint0_radial_4854_2899" cx="0" cy="0" r="1" gradientUnits="userSpaceOnUse" gradientTransform="translate(108.338 93.5704) rotate(-139.93) scale(115.251 109.784)">
<stop stop-color="#EE83C3"/>
<stop offset="0.497249" stop-color="#C86CD0"/>
<stop offset="0.950174" stop-color="#9342A2"/>
</radialGradient>
</defs>
</svg>
