<svg width="107" height="83" viewBox="0 0 107 83" fill="none" xmlns="http://www.w3.org/2000/svg">
<path d="M72.5254 7.21519L71.0824 7.16864L71.1755 4.09637L68.8945 0L70.5703 0.0465489L71.9668 2.74643L73.5029 0.13965L75.1787 0.186199L72.6185 4.14292L72.5254 7.21519ZM81.3698 8.65823L77.2269 7.68069L78.8096 0.791342L82.9525 1.72233L82.6732 2.93263L79.9268 2.32748L79.6009 3.77052L82.2077 4.37567L81.9284 5.5394L79.3216 4.93426L78.8561 6.88935L81.6026 7.54104L81.3698 8.65823ZM90.3074 12.2426L88.8643 11.5909L88.9574 9.96162L86.2575 8.75133L85.0472 9.86852L83.6508 9.21683L89.4695 4.04982L90.4004 4.46877L90.3074 12.2426ZM87.142 7.86688L88.9109 8.65823L88.9574 7.54104L89.004 7.029C89.004 6.6566 89.0505 6.33075 89.0505 6.0049C88.585 6.47039 88.2126 6.84279 87.9799 7.07554L87.142 7.86688ZM96.4985 16.6648L95.102 15.6407L95.2416 12.3356L95.0554 12.196L93.4262 14.4304L92.2624 13.5925L96.4519 7.86688L97.8484 8.89098C98.5466 9.40303 99.0121 9.96162 99.2449 10.5668C99.4311 11.1719 99.338 11.7305 98.8725 12.3356C98.5932 12.708 98.2673 12.9408 97.8484 13.0804C97.4294 13.2201 96.9639 13.1735 96.4519 13.0804L96.4985 16.6648ZM96.9174 9.68232L95.7537 11.3116L96.033 11.4978C96.4054 11.7771 96.7312 11.9167 97.0105 11.9167C97.2898 11.9167 97.5691 11.7771 97.7553 11.4978C97.9415 11.2185 97.988 10.9857 97.8949 10.7064C97.8018 10.4271 97.5691 10.1944 97.1967 9.91507L96.9174 9.68232ZM98.8259 18.6198C98.7328 18.1078 98.7794 17.5958 98.9656 17.1303L100.176 17.4096C100.036 17.782 99.9897 18.1078 100.036 18.4337C100.083 18.7595 100.222 18.9922 100.455 19.2715C100.641 19.5043 100.874 19.5974 101.107 19.6439C101.34 19.6439 101.572 19.5974 101.759 19.4112C101.898 19.2715 101.991 19.1784 102.038 19.0388C102.084 18.8991 102.084 18.7129 102.038 18.4802C101.991 18.2474 101.945 17.9682 101.805 17.6423C101.665 17.1768 101.526 16.8044 101.479 16.4786C101.433 16.1527 101.433 15.8734 101.526 15.5941C101.619 15.3148 101.805 15.0821 102.038 14.8493C102.317 14.6166 102.643 14.4304 102.969 14.3838C103.341 14.3373 103.667 14.3838 104.039 14.5235C104.412 14.6631 104.738 14.8959 105.017 15.2217C105.343 15.5941 105.576 15.9665 105.669 16.3855C105.762 16.8044 105.762 17.1768 105.669 17.5958L104.458 17.4561C104.505 17.1768 104.552 16.9441 104.505 16.7113C104.458 16.4786 104.365 16.2924 104.179 16.0596C104.086 15.92 103.946 15.8269 103.807 15.7803C103.667 15.7338 103.527 15.6872 103.388 15.7338C103.248 15.7338 103.155 15.7803 103.062 15.8734C102.969 15.9665 102.922 16.0596 102.876 16.1993C102.876 16.3389 102.876 16.4786 102.922 16.7113C102.969 16.9441 103.062 17.2234 103.155 17.5492C103.341 18.0147 103.434 18.3871 103.434 18.7595C103.481 19.0853 103.434 19.4112 103.295 19.6905C103.202 19.9698 102.969 20.2491 102.69 20.4818C102.364 20.7611 102.038 20.9473 101.665 20.9939C101.293 21.0404 100.921 20.9939 100.548 20.8542C100.176 20.7146 99.85 20.4353 99.5242 20.1094C99.1983 19.5974 98.919 19.1319 98.8259 18.6198Z" fill="white"/>
<path d="M60.98 24.2061V3.25879H0L9.17027 17.5961H36.8673C34.3536 18.8529 31.8865 20.296 29.559 21.8786C26.766 23.8337 24.1593 26.0216 21.8783 28.4887C26.8591 23.9268 32.5847 20.296 38.7293 17.503L40.312 16.7582C39.7068 16.7582 39.1482 16.7582 38.5431 16.7582H9.54267L1.39649 4.00358H60.1887V23.5079L58.3267 23.7872C51.1115 24.8113 41.9412 29.5593 37.7517 32.6316C32.5847 36.4021 29.0935 39.7071 26.4867 43.3846C19.225 53.7186 18.294 64.8439 18.7595 72.3384L18.8992 74.6659H6.098L6.00491 72.6177C6.00491 72.2453 5.95835 71.966 5.95835 71.966C5.67906 64.8439 6.4704 57.6753 8.28583 50.786C5.53941 58.0011 4.74806 65.868 5.26011 73.5487L5.35321 75.4107H19.7836L19.5974 72.2453C19.1319 64.8439 20.0629 53.9513 27.185 43.8035C29.7452 40.2192 33.1433 36.9607 38.2638 33.2367C42.4067 30.211 51.4373 25.5561 58.5129 24.532L60.98 24.2061Z" fill="white"/>
<path d="M98.5943 25.0443C98.5943 24.9978 98.5477 24.9978 98.5477 24.9512C98.4546 24.8581 98.3615 24.7185 98.2684 24.6254C97.2909 23.4151 96.2202 22.2513 95.103 21.1341L95.0565 21.0876C94.8703 20.9014 94.6841 20.7617 94.4979 20.5755C94.3582 20.4359 94.1721 20.2963 94.0324 20.1566L93.9859 20.11L93.9393 20.0635C93.7996 19.9239 93.6134 19.7842 93.4738 19.6446C87.2827 14.3844 79.1831 11.4053 71.0834 10.9863C72.8058 11.2191 74.4815 11.4984 76.1573 11.9173C78.9038 12.569 81.6502 13.5 84.2104 14.7103C90.9136 17.7826 96.3599 22.6703 100.13 28.6286C103.529 34.1215 105.391 40.4988 105.391 47.0157C105.391 57.7221 100.596 67.3114 93.0549 73.7352C88.4464 77.6454 82.8139 80.3918 76.7625 81.3228C60.2374 84.3485 43.8985 74.2473 38.3125 58.4204C43.0606 73.4094 56.7462 82.6262 71.13 82.6727C71.1765 82.6727 71.2231 82.6727 71.3162 82.6727C74.435 82.6727 77.6004 82.2538 80.7192 81.3228C80.7658 81.3228 80.8123 81.3228 80.8123 81.2763C80.9985 81.2297 81.2313 81.1366 81.4175 81.0901C81.6036 81.0435 81.8364 80.9504 82.0226 80.9039C82.0691 80.9039 82.1157 80.8573 82.1623 80.8573C96.1271 76.1558 106.228 62.7495 106.228 47.0157C106.228 39.1023 103.482 31.282 98.5943 25.0443Z" fill="white"/>
<path d="M53.4844 58.4671C54.4619 60.1895 55.6722 61.7722 57.1152 63.1686C60.0013 65.9616 63.7253 67.9167 67.682 68.5684C73.2214 69.5459 78.5281 68.1495 82.7641 65.2634C86.2553 62.8894 89.0017 59.5378 90.631 55.5811H89.7465C88.7224 57.9551 87.2794 60.0964 85.5105 61.9118C80.4832 66.9857 72.9887 69.4528 65.308 67.3116C60.5599 65.8685 56.3239 62.6566 53.4844 58.4671Z" fill="white"/>
<path d="M88.3978 35.9834C88.3978 35.8438 88.3978 35.7507 88.3978 35.7041V35.2852H88.6306C88.7237 35.2852 88.8168 35.2852 88.9099 35.2852C87.653 33.2835 86.0238 31.4681 84.1618 29.9785C83.7428 29.6527 83.3239 29.3268 82.8584 29.001C82.6257 29.1872 82.3929 29.3268 82.1602 29.513C82.6722 29.8389 83.1377 30.2113 83.6497 30.5837C85.5117 32.0732 87.141 33.9352 88.3978 35.9834Z" fill="white"/>
<path d="M72.5735 55.2075C72.0614 55.4402 71.1304 55.9522 69.7339 55.9522C68.3374 55.9522 65.4048 55.1144 65.4048 51.4835V36.7273H63.5428V35.2377H65.4048V34.4929C65.4048 33.1429 66.0565 31.9326 67.2202 31.0017C68.1512 30.3034 69.0357 30.0241 69.0357 30.0241L69.3615 29.931C69.3615 29.931 69.3615 32.2119 69.3615 35.2377H73.3183C73.3183 35.2377 72.7131 36.7273 72.0149 36.7273H69.3615V51.4369C69.315 54.1834 71.689 55.3006 72.5735 55.2075ZM31.7494 29.4655C30.6322 29.4655 29.7478 30.35 29.7478 31.4671C29.7478 32.5843 30.6322 33.4688 31.7494 33.4688C32.8666 33.4688 33.7511 32.5843 33.7511 31.4671C33.7976 30.3965 32.8666 29.4655 31.7494 29.4655ZM33.7511 37.472V55.4867H29.8409V38.2634C29.8409 36.96 29.8409 35.6566 29.8409 35.6566V35.2377H31.5167C32.727 35.2842 33.7511 36.2618 33.7511 37.472ZM26.9548 28.6742C27.1876 29 27.3272 29.419 27.2341 29.8379L23.0446 55.5333H20.0655V55.4867C20.0189 55.3006 17.5983 40.5443 16.807 35.7032C16.9932 38.8685 16.9932 41.0098 16.807 42.0339L14.3864 55.5333H11.9193L5.96094 23.9727L7.86947 24.4382C9.21941 24.9967 10.8021 26.3932 11.2676 28.6742L14.4795 45.1527L17.4121 26.9053L18.0638 26.9984C19.4138 27.1846 20.4844 28.2087 20.6706 29.5586L23.1377 45.1062L25.8842 28.069L26.0238 28.1156C26.4428 28.1621 26.7686 28.3483 26.9548 28.6742ZM79.5093 35.0049C76.5302 35.0049 72.9924 36.8204 72.9924 45.3855C72.9924 52.2748 75.1802 55.7661 79.5093 55.7661C83.885 55.7661 86.0728 52.2748 86.0728 45.3855C86.0728 36.8204 82.4885 35.0049 79.5093 35.0049ZM79.5093 54.1368C77.9732 54.1368 77.1353 52.5076 77.1353 45.3855C77.1353 39.9392 77.5077 36.6342 79.5093 36.6342C81.3248 36.6342 81.9299 39.0547 81.9299 45.3855C81.9299 51.7162 81.3248 54.1368 79.5093 54.1368ZM62.8911 50.0404C62.8911 53.6713 59.7257 55.8126 56.6535 55.8126C55.1639 55.8126 54.1863 55.6264 53.3485 55.4402L53.1623 55.3937L53.0226 55.3471C52.883 55.3006 52.7899 55.3006 52.6502 55.3006L52.2778 55.254L52.464 50.7852L53.1623 51.949C53.7674 52.9265 54.7915 53.7644 56.2811 53.9506C56.5138 53.9506 56.7 53.9972 56.8397 53.9972C57.631 53.9972 59.5396 53.4851 59.5396 51.53C59.5396 50.1335 58.7948 49.1095 58.1896 48.5043C57.7241 47.9923 56.4673 46.8751 55.257 45.9441C52.7433 44.0355 51.9985 42.7787 51.9985 40.3581C51.9985 37.3324 54.326 35.098 57.4914 35.098C58.9344 35.098 59.8188 35.2842 60.7964 35.517L61.4946 35.6566L61.6808 39.5202L61.4015 39.6133L60.7964 38.5892C60.2843 37.6582 59.2603 36.8669 58.05 36.8669C57.4448 36.8669 55.3966 37.3324 55.3501 39.2875C55.3035 40.1254 55.7225 40.9167 56.4207 41.5219C57.2121 42.2201 58.0965 42.9184 59.2603 43.8028C62.4722 46.0837 62.8911 48.1319 62.8911 50.0404ZM100.364 40.2185V55.6264H99.0136C96.8724 55.6264 96.4534 55.0213 96.4534 52.3214V40.9633C96.4534 38.403 95.8483 37.3789 94.4052 37.3789C93.7535 37.3789 93.1949 37.7513 92.776 38.4496C92.4501 39.0082 92.357 39.5668 92.357 39.5668H92.3105C92.3105 39.7995 92.3105 39.9392 92.3105 39.9392V55.4867H88.4003V38.2634C88.4003 36.96 88.4003 35.8894 88.4003 35.6566V35.2377H88.6331C90.914 35.2377 91.6122 36.2618 91.9846 36.8669C92.0777 37.0065 92.1243 37.2393 92.1708 37.472C92.4501 36.3549 93.3811 34.8187 95.6621 34.8187C97.8034 34.8653 100.364 35.7963 100.364 40.2185ZM49.2521 40.2185V55.6264H47.9022C45.7609 55.6264 45.3419 55.0213 45.3419 52.3214V40.9633C45.3419 38.403 44.7368 37.3789 43.2937 37.3789C42.642 37.3789 42.0834 37.7513 41.6645 38.4496C41.3386 39.0082 41.2456 39.5668 41.2456 39.5668H41.199C41.199 39.7995 41.199 39.9392 41.199 39.9392V55.4867H37.2888V38.2634C37.2888 36.96 37.2888 35.8894 37.2888 35.6566V35.2377H37.5216C39.8025 35.2377 40.5008 36.2618 40.8732 36.8669C40.9663 37.0065 41.0128 37.2393 41.0594 37.472C41.3386 36.3549 42.2696 34.8187 44.5506 34.8187C46.6919 34.8653 49.2521 35.7963 49.2521 40.2185Z" fill="white"/>
<path d="M103.11 21.7387C98.9209 24.8575 91.0074 23.9265 91.0074 23.9265C91.1471 21.9249 89.2385 22.3904 89.2385 22.3904C88.9592 22.0645 88.4937 22.018 88.1213 21.9714C87.0973 21.9249 86.1663 22.2973 85.1887 22.4369C84.1646 22.5765 83.1405 22.5765 82.163 22.3438C79.2769 21.599 76.6701 20.156 74.2961 18.3405C72.4807 16.8975 70.8049 15.2217 69.3619 13.4063C68.2447 12.0563 67.2671 10.5668 66.662 8.89096C66.3361 8.05307 66.0568 7.12208 66.1034 5.58594C66.1034 5.58594 61.7743 12.3822 68.9429 17.9216C68.9429 17.9216 65.5913 16.3389 64.3345 13.9649C64.0086 15.4545 64.1483 19.3181 70.0135 21.5525C70.0135 21.5525 67.8257 21.5525 65.4517 20.0163C65.4517 20.0163 67.8257 26.0678 78.2994 27.0919C75.8788 28.2556 72.9462 28.4418 72.9462 28.4418C72.9462 28.4418 73.0858 30.071 74.9013 30.0245C76.7167 30.0245 77.7873 29.2331 77.7873 29.2331C77.7873 29.2331 76.6701 30.2107 75.6461 30.7227C76.9494 31.002 80.6269 31.3744 83.6526 28.3022C84.5836 27.3712 85.7008 26.3936 86.399 25.835C86.2594 25.9747 84.9094 27.185 84.6767 28.0229C85.468 28.0229 91.2402 28.2091 97.3382 26.1143C97.9433 25.9281 98.5019 25.6954 99.0605 25.4626C101.062 24.5782 102.598 23.3679 103.11 21.7387ZM90.4954 24.2523C90.2626 23.9265 89.2385 23.6472 86.7714 25.4626C87.0042 24.904 85.7939 24.6713 85.0025 24.2058C84.1646 23.7403 84.6767 22.9024 84.6767 22.9024C86.1663 23.3679 86.5387 22.7162 87.6559 22.53C88.5403 22.3903 88.68 22.6231 88.68 22.6231C88.3541 22.9955 87.749 23.0886 87.749 23.0886C87.749 23.0886 88.3075 23.461 88.9592 23.0886C89.4247 22.8559 89.6575 22.6231 90.0764 22.8093C90.4488 23.0886 90.7281 23.6006 90.4954 24.2523Z" fill="white"/>
</svg>
