<svg width="160" height="161" viewBox="0 0 160 161" fill="none" xmlns="http://www.w3.org/2000/svg">
<path d="M89.1731 13.2864L94.9189 5.00049L97.0631 14.8587C98.7209 22.4825 107.46 26.1098 114.013 21.8941L122.486 16.4417L120.701 26.3703C119.321 34.0494 126.009 40.7523 133.673 39.3685L143.583 37.5801L138.142 46.0698C133.935 52.6348 137.555 61.3927 145.162 63.0538L155 65.2023L146.731 70.9597C140.335 75.4114 140.335 84.8895 146.731 89.3428L155 95.1002L145.162 97.2487C137.553 98.9098 133.933 107.666 138.142 114.233L143.583 122.722L133.673 120.934C126.009 119.552 119.32 126.253 120.701 133.932L122.486 143.861L114.013 138.408C107.461 134.193 98.7209 137.818 97.0631 145.442L94.9189 155.3L89.1731 147.015C84.7303 140.606 75.2712 140.606 70.8269 147.015L65.0811 155.3L62.9369 145.442C61.279 137.818 52.5402 134.191 45.9869 138.408L37.5143 143.861L39.299 133.932C40.6785 126.253 33.9906 119.55 26.327 120.934L16.4182 122.722L21.8597 114.233C26.067 107.668 22.447 98.9098 14.8384 97.2487L5 95.1002L13.2693 89.3428C19.6651 84.8911 19.6651 75.413 13.2693 70.9597L5 65.2023L14.8384 63.0538C22.447 61.3927 26.067 52.6363 21.8597 46.0698L16.4182 37.5801L26.327 39.3685C33.9906 40.7507 40.6801 34.0494 39.299 26.3703L37.5143 16.4417L45.9869 21.8941C52.5387 26.1098 61.279 22.4825 62.9369 14.8587L65.0811 5.00049L70.8269 13.2864C75.2712 19.6935 84.7303 19.6935 89.1731 13.2864Z" stroke="white" stroke-width="4"/>
<mask id="path-2-inside-1_4854_2860" fill="white">
<path fill-rule="evenodd" clip-rule="evenodd" d="M76.0085 51.3687H83.9872V89.7431H76.0085V51.3687ZM85.274 103.649C85.274 106.606 82.8787 109.003 79.9241 109.003C76.9694 109.003 74.5742 106.606 74.5742 103.649C74.5742 100.691 76.9694 98.2941 79.9241 98.2941C82.8787 98.2941 85.274 100.691 85.274 103.649Z"/>
</mask>
<path fill-rule="evenodd" clip-rule="evenodd" d="M76.0085 51.3687H83.9872V89.7431H76.0085V51.3687ZM85.274 103.649C85.274 106.606 82.8787 109.003 79.9241 109.003C76.9694 109.003 74.5742 106.606 74.5742 103.649C74.5742 100.691 76.9694 98.2941 79.9241 98.2941C82.8787 98.2941 85.274 100.691 85.274 103.649Z" fill="white"/>
<path d="M83.9872 51.3687H90.9872V44.3687H83.9872V51.3687ZM76.0085 51.3687V44.3687H69.0085V51.3687H76.0085ZM83.9872 89.7431V96.7431H90.9872V89.7431H83.9872ZM76.0085 89.7431H69.0085V96.7431H76.0085V89.7431ZM83.9872 44.3687H76.0085V58.3687H83.9872V44.3687ZM90.9872 89.7431V51.3687H76.9872V89.7431H90.9872ZM76.0085 96.7431H83.9872V82.7431H76.0085V96.7431ZM69.0085 51.3687V89.7431H83.0085V51.3687H69.0085ZM79.9241 116.003C86.7506 116.003 92.274 110.466 92.274 103.649H78.274C78.274 102.746 79.0069 102.003 79.9241 102.003V116.003ZM67.5742 103.649C67.5742 110.466 73.0976 116.003 79.9241 116.003V102.003C80.8413 102.003 81.5742 102.746 81.5742 103.649H67.5742ZM79.9241 91.2941C73.0976 91.2941 67.5742 96.8314 67.5742 103.649H81.5742C81.5742 104.552 80.8413 105.294 79.9241 105.294V91.2941ZM92.274 103.649C92.274 96.8314 86.7506 91.2941 79.9241 91.2941V105.294C79.0069 105.294 78.274 104.552 78.274 103.649H92.274Z" fill="white" mask="url(#path-2-inside-1_4854_2860)"/>
</svg>
